<svg width="239" height="60" viewBox="0 0 239 60" fill="none" xmlns="http://www.w3.org/2000/svg">
<path d="M34.8667 47.541V13.1147H44.6044V39.8197H61.0306V47.541H34.8667ZM61.089 47.541L76.2857 13.1147H85.8759L101.122 47.541H90.9906L79.089 17.8852H82.9251L71.0234 47.541H61.089ZM69.4005 40.8525L71.9087 33.6721H88.7283L91.2365 40.8525H69.4005ZM103.882 47.541V13.1147H119.62C122.768 13.1147 125.473 13.6229 127.735 14.6393C130.03 15.6557 131.8 17.1311 133.046 19.0656C134.292 20.9672 134.915 23.2295 134.915 25.8525C134.915 28.4426 134.292 30.6885 133.046 32.5902C131.8 34.4918 130.03 35.9672 127.735 37.0164C125.473 38.0328 122.768 38.541 119.62 38.541H109.292L113.62 34.3115V47.541H103.882ZM113.62 35.3443L109.292 30.8688H119.03C121.063 30.8688 122.571 30.4262 123.555 29.541C124.571 28.6557 125.079 27.4262 125.079 25.8525C125.079 24.2459 124.571 23 123.555 22.1147C122.571 21.2295 121.063 20.7869 119.03 20.7869H109.292L113.62 16.3115V35.3443ZM139.663 47.541V13.1147H155.401C158.548 13.1147 161.253 13.6229 163.516 14.6393C165.811 15.6557 167.581 17.1311 168.827 19.0656C170.073 20.9672 170.696 23.2295 170.696 25.8525C170.696 28.4426 170.073 30.6885 168.827 32.5902C167.581 34.4918 165.811 35.9672 163.516 37.0164C161.253 38.0328 158.548 38.541 155.401 38.541H145.073L149.401 34.3115V47.541H139.663ZM149.401 35.3443L145.073 30.8688H154.811C156.843 30.8688 158.352 30.4262 159.335 29.541C160.352 28.6557 160.86 27.4262 160.86 25.8525C160.86 24.2459 160.352 23 159.335 22.1147C158.352 21.2295 156.843 20.7869 154.811 20.7869H145.073L149.401 16.3115V35.3443ZM184.395 26.4426H200.378V33.7213H184.395V26.4426ZM185.083 40.0164H203.083V47.541H175.444V13.1147H202.444V20.6393H185.083V40.0164ZM217.438 26.4426H233.421V33.7213H217.438V26.4426ZM218.126 40.0164H236.126V47.541H208.487V13.1147H235.487V20.6393H218.126V40.0164Z" fill="#3C3C3C"/>
<path d="M16.8061 34.3444H9.29248L19.8116 13.3062V25.328H27.3253L16.8061 46.3663V34.3444Z" fill="#3C3C3C"/>
</svg>
